<svg version="1.0" xmlns="http://www.w3.org/2000/svg"
 width="648.000000pt" height="405.000000pt" viewBox="0 0 648.000000 405.000000"
 preserveAspectRatio="xMidYMid meet">
<metadata>
Created by potrace 1.15, written by Peter Selinger 2001-2017
</metadata>
<g transform="translate(0.000000,405.000000) scale(0.100000,-0.100000)"
fill="#000000" stroke="none">
<path d="M3060 3930 c-44 -35 -61 -54 -80 -90 -15 -29 -20 -32 -25 -17 -4 9
-13 17 -20 17 -9 0 -16 18 -21 45 -9 65 -27 57 -22 -10 4 -52 4 -54 -13 -39
-20 18 -39 11 -39 -15 0 -10 -7 -24 -15 -31 -10 -9 -15 -9 -15 -1 0 19 -22 12
-27 -9 -3 -11 -12 -20 -19 -20 -8 0 -14 -5 -14 -10 0 -6 -11 -8 -26 -4 -24 6
-26 4 -19 -15 7 -22 6 -22 -19 -6 -21 14 -26 15 -26 3 0 -8 5 -19 12 -26 9 -9
5 -12 -19 -12 -17 0 -54 -5 -82 -12 -38 -9 -51 -16 -51 -30 0 -10 5 -18 10
-18 6 0 10 -4 10 -10 0 -5 -13 -10 -30 -10 -28 0 -45 -20 -17 -20 6 -1 0 -7
-14 -15 -35 -19 -85 -85 -71 -94 7 -4 -14 -32 -50 -71 -34 -36 -61 -69 -59
-74 1 -4 -3 -14 -9 -21 -8 -10 -7 -16 7 -24 15 -9 13 -10 -9 -5 -28 6 -31 3
-31 -37 0 -12 -12 -19 -38 -23 -24 -4 -42 -14 -49 -26 -6 -11 -8 -20 -4 -20 4
0 -1 -8 -10 -19 -9 -10 -18 -28 -19 -40 -1 -11 -7 -21 -14 -21 -7 0 -13 -9
-13 -20 0 -24 -25 -76 -48 -102 -8 -10 -10 -18 -4 -18 11 0 10 -59 -2 -79 -4
-7 -4 -17 1 -24 7 -10 9 -158 3 -242 -2 -26 6 -172 15 -296 l8 -97 71 38 c39
21 90 44 113 51 23 6 41 15 40 20 -1 4 6 14 17 22 16 11 17 17 6 36 -6 12 -9
29 -6 37 3 8 -1 14 -9 14 -18 0 -20 24 -2 38 11 9 12 37 5 98 -1 6 4 38 12 72
9 45 10 69 2 91 -9 25 -8 31 3 31 8 0 11 7 8 20 -3 11 -1 20 5 20 6 0 8 8 5
19 -3 10 0 22 6 25 6 4 11 17 11 29 0 13 7 32 15 44 11 16 12 22 2 26 -9 3 -9
8 2 21 21 25 6 31 -30 10 -38 -22 -42 -36 -40 -128 1 -56 -2 -67 -12 -57 -7 7
-12 37 -12 72 0 32 -3 59 -7 59 -5 0 -8 -8 -8 -18 0 -10 -7 -19 -15 -19 -21 0
-19 5 20 46 20 20 44 51 53 70 12 24 24 35 41 36 13 1 32 12 42 24 23 28 80
52 107 44 14 -3 22 -1 22 7 0 8 10 9 30 5 22 -5 30 -3 30 7 0 8 4 7 11 -4 5
-10 16 -18 24 -18 8 0 13 -9 12 -20 -1 -11 -7 -20 -14 -20 -16 0 -17 -42 -1
-58 7 -7 19 -12 27 -12 10 0 8 7 -9 25 -13 14 -19 25 -13 25 6 0 13 -6 15 -12
3 -9 9 -8 22 5 21 21 52 22 88 3 17 -9 42 -12 67 -9 23 3 46 1 53 -4 7 -5 33
-8 58 -5 25 2 62 3 83 3 40 -1 50 13 16 22 -17 5 -19 9 -9 26 10 19 13 20 25
7 8 -8 15 -19 15 -24 0 -14 68 8 109 35 34 23 49 24 36 4 -3 -6 -15 -11 -25
-11 -11 0 -24 -9 -30 -20 -10 -18 -7 -20 22 -21 30 -2 31 -2 6 -6 -29 -4 -39
-23 -14 -23 8 0 17 -6 19 -12 4 -9 11 -7 24 8 20 24 38 35 111 63 32 13 54 17
57 10 4 -5 3 -8 -2 -7 -11 4 -103 -35 -103 -44 0 -3 8 -8 18 -10 11 -3 5 -9
-20 -18 -51 -19 -48 -34 6 -28 31 4 46 1 50 -7 3 -9 -12 -15 -50 -20 -29 -3
-56 -11 -59 -16 -7 -11 -10 -11 140 5 66 7 122 9 125 5 5 -7 120 18 132 29 4
4 8 14 10 22 2 11 -16 17 -77 26 l-80 11 115 -3 c147 -3 231 -14 248 -31 15
-15 58 -18 66 -4 9 13 46 1 46 -15 0 -7 8 -18 18 -23 15 -9 15 -10 -5 -11 -27
0 -28 -3 -6 -37 17 -25 17 -25 -5 -19 -32 10 -27 -6 9 -33 17 -12 28 -29 26
-36 -7 -17 12 -35 39 -35 13 0 31 -11 42 -25 23 -29 32 -31 32 -9 0 12 5 10
20 -9 11 -14 20 -30 20 -36 0 -6 4 -11 10 -11 12 0 50 -72 51 -97 0 -14 3 -12
12 7 14 28 38 54 55 58 9 1 10 -9 6 -36 -4 -27 -1 -49 10 -70 14 -28 14 -32 0
-46 -8 -9 -12 -21 -8 -27 4 -8 3 -9 -4 -5 -7 4 -12 3 -12 -3 0 -5 3 -12 8 -15
4 -2 7 -33 6 -69 l-2 -65 42 -6 c54 -8 129 -44 189 -90 55 -42 57 -43 57 -16
0 11 3 20 8 20 6 0 10 19 12 73 1 9 7 17 15 17 11 0 11 7 3 36 -7 27 -7 39 2
44 9 6 9 13 -1 31 -7 13 -14 53 -15 89 -1 36 -2 70 -3 76 0 6 -15 14 -33 18
-30 6 -31 7 -12 21 10 8 25 15 32 15 7 0 10 5 7 10 -4 6 2 26 13 44 19 32 15
65 -6 52 -6 -4 -8 2 -5 14 3 10 -2 26 -11 35 -23 23 -21 44 4 38 12 -3 20 0
20 6 0 7 5 9 10 6 6 -3 10 -2 10 4 0 5 -4 13 -10 16 -16 10 -12 35 6 35 13 0
14 3 4 15 -6 8 -9 23 -5 35 3 11 2 20 -3 20 -5 0 -8 18 -6 39 2 28 -1 41 -12
45 -8 3 -13 10 -9 15 3 6 -3 15 -14 21 -11 6 -18 17 -15 24 3 9 -3 17 -17 21
-15 5 -18 10 -9 15 9 6 8 14 -4 38 -9 17 -20 34 -26 37 -6 4 -8 11 -4 17 3 5
-5 22 -19 36 -25 28 -44 92 -27 92 24 0 7 28 -22 37 -26 7 -32 14 -30 31 3 19
-1 22 -30 22 -19 0 -28 3 -21 8 8 5 10 17 5 37 -6 22 -15 31 -34 33 -16 2 -28
11 -31 23 -3 10 -14 22 -25 26 -12 5 -21 13 -22 18 -1 6 -8 9 -16 9 -9 -1 -14
7 -14 22 0 20 -5 24 -31 24 l-32 0 27 21 c40 31 31 42 -15 19 -22 -12 -53 -20
-67 -18 -23 3 -27 7 -26 36 2 31 -9 42 -20 23 -8 -13 -66 10 -66 26 0 7 -9 13
-20 13 -11 0 -20 7 -20 15 0 8 -4 15 -9 15 -5 0 -11 -7 -15 -15 -12 -32 -76
-8 -76 29 0 12 -10 16 -40 16 -29 0 -40 4 -40 15 0 9 -9 15 -22 15 -12 0 -18
3 -14 7 4 4 -10 12 -31 18 -21 7 -37 17 -36 23 4 16 -476 15 -495 0 -7 -6 -15
-8 -19 -4 -3 3 -14 -1 -24 -10 -15 -14 -17 -14 -15 2 2 25 -15 26 -44 4z m242
-562 c2 -6 31 -13 66 -16 49 -3 60 -7 52 -17 -6 -7 -22 -16 -35 -19 -14 -4
-25 -11 -25 -17 0 -10 21 -8 74 8 12 3 16 1 12 -6 -4 -6 -1 -11 7 -11 14 0 60
43 53 51 -2 2 19 5 47 5 l52 2 -34 -12 c-36 -13 -54 -36 -27 -36 8 0 27 5 41
10 21 8 30 7 42 -6 13 -13 28 -15 75 -10 51 6 59 5 65 -11 4 -10 11 -21 17
-25 6 -5 3 -8 -9 -8 -11 1 -29 7 -39 15 -23 17 -111 20 -150 5 -17 -6 -26 -6
-26 0 0 15 -37 12 -73 -6 -17 -9 -54 -19 -82 -21 -63 -6 -98 -21 -158 -67 -59
-45 -74 -42 -20 4 l38 32 -30 -7 c-16 -5 -41 -9 -55 -10 -14 -1 -25 -3 -25 -5
0 -1 -18 -3 -39 -5 l-40 -2 34 29 c19 15 38 28 42 28 4 0 8 6 8 14 0 20 89 53
131 48 39 -4 83 13 74 29 -4 5 -16 9 -28 9 -27 0 -81 39 -55 40 9 0 18 -5 20
-12z m1164 -390 c24 -17 44 -36 44 -41 0 -6 -8 -3 -18 6 -16 14 -21 15 -37 3
-10 -7 -15 -18 -11 -24 5 -8 1 -10 -10 -5 -14 5 -15 3 -6 -13 20 -36 40 -59
47 -52 4 3 2 16 -5 27 -6 12 -8 21 -6 21 3 0 12 -13 21 -29 11 -23 12 -31 2
-35 -9 -5 -9 -7 1 -12 6 -3 12 -17 12 -32 0 -23 -3 -21 -30 21 -32 51 -56 64
-40 22 17 -45 38 -80 58 -98 11 -11 18 -25 15 -33 -4 -11 -10 -11 -34 2 -16 8
-34 12 -39 9 -6 -3 -10 1 -10 9 0 9 -4 16 -10 16 -5 0 -10 11 -10 24 0 32 -18
43 -22 14 -2 -18 -6 -15 -15 17 -10 32 -10 37 1 23 21 -28 41 -6 28 31 -6 18
-7 29 -3 26 17 -10 22 45 7 74 -15 27 -14 28 10 23 26 -5 31 7 12 26 -23 23 4
12 48 -20z"/>
<path d="M2655 2344 c-382 -23 -585 -97 -585 -214 0 -40 9 -51 68 -85 32 -18
37 -29 62 -115 84 -301 212 -352 672 -271 97 17 194 31 217 31 36 0 43 4 71
45 56 81 100 220 100 317 0 61 9 70 66 66 l49 -3 12 -113 c15 -150 35 -205 92
-262 36 -36 60 -50 106 -62 205 -56 569 -62 668 -11 98 50 155 131 191 273 21
84 26 94 53 105 43 18 76 63 68 95 -15 62 -144 144 -275 174 -179 42 -542 45
-740 5 -117 -23 -232 -22 -450 5 -125 16 -349 26 -445 20z m370 -106 c69 -13
70 -13 81 -53 33 -109 8 -289 -53 -382 -24 -37 -32 -43 -63 -43 -19 0 -75 -7
-125 -15 -198 -31 -267 -37 -337 -25 -99 17 -153 56 -198 144 -32 62 -35 77
-38 172 -3 57 -1 119 2 138 7 34 9 35 79 51 40 9 101 20 137 25 87 12 427 4
515 -12z m1214 -7 c51 -11 95 -22 97 -24 3 -2 9 -31 15 -65 14 -80 -2 -186
-42 -272 -75 -161 -160 -186 -463 -135 -83 14 -167 25 -187 25 -31 0 -43 6
-67 36 -76 92 -99 336 -39 417 34 48 491 60 686 18z"/>
<path d="M3599 1531 l-29 -29 0 -270 0 -270 26 -31 c14 -17 40 -35 57 -39 l32
-9 -3 -116 c-2 -64 -1 -117 1 -117 3 0 69 52 148 115 l144 115 723 0 c798 0
762 -3 802 63 18 30 20 52 20 287 0 280 -1 284 -60 315 -25 13 -150 15 -930
15 l-902 0 -29 -29z m381 -131 c0 -29 -1 -30 -50 -30 l-50 0 0 -175 0 -175
-40 0 -40 0 0 175 0 175 -60 0 -60 0 0 30 0 30 150 0 150 0 0 -30z m396 -160
c95 -237 90 -220 61 -220 -21 0 -28 9 -47 60 l-22 60 -83 0 -83 0 -22 -60
c-19 -50 -26 -60 -46 -60 -13 0 -24 2 -24 5 0 3 32 85 71 182 39 98 75 188 80
201 19 50 40 19 115 -168z m344 15 l0 -175 95 0 95 0 0 -30 0 -30 -125 0 -125
0 0 205 0 205 30 0 30 0 0 -175z m450 -30 l0 -205 -30 0 -30 0 0 205 0 205 30
0 30 0 0 -205z m138 113 c-38 -51 -73 -99 -75 -106 -3 -6 26 -49 63 -95 107
-128 101 -117 68 -117 -25 0 -39 14 -104 103 -41 56 -75 107 -74 112 1 6 31
52 68 103 58 79 72 92 97 92 28 0 28 0 -43 -92z"/>
<path d="M1200 1230 l0 -210 35 0 34 0 3 137 3 137 94 -137 c84 -121 98 -137
123 -137 l28 0 0 210 0 210 -35 0 -34 0 -3 -132 -3 -133 -90 132 c-84 124 -92
132 -122 133 l-33 0 0 -210z"/>
<path d="M1720 1230 l0 -210 130 0 130 0 0 35 0 35 -95 0 -95 0 0 55 0 55 95
0 95 0 0 35 0 35 -95 0 -95 0 0 50 0 50 95 0 95 0 0 35 0 35 -130 0 -130 0 0
-210z"/>
<path d="M2170 1230 l0 -210 35 0 35 0 0 175 0 175 58 0 c66 0 92 -18 92 -63
0 -43 -32 -67 -90 -67 -39 0 -50 -3 -50 -16 0 -9 34 -59 76 -110 75 -93 77
-94 120 -94 24 0 44 3 44 6 0 3 -27 37 -60 76 -56 67 -65 88 -36 88 50 0 85
124 52 188 -26 50 -61 62 -176 62 l-100 0 0 -210z"/>
<path d="M2650 1230 l0 -213 108 5 c83 3 118 9 148 25 96 49 133 180 80 286
-15 32 -40 62 -62 77 -34 23 -49 25 -156 28 l-118 4 0 -212z m227 120 c46 -27
66 -73 61 -132 -8 -81 -69 -128 -168 -128 l-50 0 0 140 0 140 63 0 c44 0 71
-6 94 -20z"/>
<path d="M3153 1426 c3 -7 37 -64 76 -127 l71 -113 0 -83 0 -83 35 0 35 0 0
88 0 88 64 101 c97 153 94 143 44 143 -43 -1 -43 -1 -91 -80 -27 -44 -52 -80
-55 -80 -4 0 -29 36 -55 80 -47 79 -49 80 -89 80 -30 0 -39 -4 -35 -14z"/>
<path d="M2525 638 c-15 -21 -14 -24 5 -40 27 -22 21 -44 -25 -93 -19 -20 -35
-39 -35 -43 0 -8 57 -42 70 -42 5 0 14 17 20 38 5 20 19 48 30 62 17 23 21 24
41 11 20 -12 24 -11 40 10 10 13 19 26 19 29 0 6 -134 90 -143 90 -3 0 -13
-10 -22 -22z"/>
<path d="M4008 621 c-33 -19 -34 -22 -8 -97 12 -32 22 -72 24 -87 6 -45 20
-53 55 -28 35 25 37 33 15 55 -8 9 -11 16 -5 16 5 0 17 -10 25 -21 l15 -21 31
22 c19 14 29 28 26 37 -3 8 -6 17 -6 19 0 2 -6 4 -12 4 -7 0 -40 26 -73 59
-60 58 -60 58 -87 42z"/>
<path d="M2820 484 c0 -45 -20 -124 -31 -124 -5 0 -9 -11 -9 -24 0 -18 7 -25
31 -30 48 -9 49 -9 50 37 l1 42 10 -45 c10 -47 21 -60 49 -60 24 0 30 25 14
57 -14 26 -13 29 4 37 25 11 45 86 28 103 -11 12 -113 43 -137 43 -6 0 -10
-16 -10 -36z"/>
<path d="M3492 461 c-9 -6 -11 -19 -7 -45 5 -24 3 -36 -4 -36 -6 0 -11 17 -11
40 l0 40 -40 0 c-36 0 -40 -3 -40 -24 0 -14 4 -27 9 -30 4 -3 20 -39 36 -81
25 -69 29 -75 55 -75 30 0 26 -12 67 193 5 24 3 27 -23 27 -16 0 -35 -4 -42
-9z"/>
</g>
</svg>
